<svg width="359" height="60" viewBox="0 0 359 60" fill="none" xmlns="http://www.w3.org/2000/svg">
<g filter="url(#filter0_b)">
<rect width="359" height="60" rx="13" fill="#0A84FF"/>
<path d="M98.9037 37H100.642L105.837 22.9082H103.992L99.7923 34.8906H99.7533L95.5541 22.9082H93.7084L98.9037 37ZM108.229 25.125C108.825 25.125 109.293 24.6465 109.293 24.0605C109.293 23.4648 108.825 22.9961 108.229 22.9961C107.643 22.9961 107.165 23.4648 107.165 24.0605C107.165 24.6465 107.643 25.125 108.229 25.125ZM107.379 37H109.079V26.8438H107.379V37ZM115.953 37.1953C118.17 37.1953 119.83 35.8672 120.162 34.1875L120.181 34.0898H118.511L118.482 34.1777C118.189 35.0469 117.281 35.6914 115.992 35.6914C114.185 35.6914 113.033 34.4707 112.994 32.3809H120.308V31.7559C120.308 28.709 118.619 26.6484 115.845 26.6484C113.072 26.6484 111.275 28.8066 111.275 31.9512V31.9609C111.275 35.1543 113.033 37.1953 115.953 37.1953ZM115.836 28.1523C117.32 28.1523 118.414 29.0801 118.58 31.0527H113.023C113.209 29.1582 114.361 28.1523 115.836 28.1523ZM124.419 37H126.147L128.432 29.1387H128.471L130.766 37H132.495L135.327 26.8438H133.647L131.616 35.1055H131.577L129.272 26.8438H127.632L125.337 35.1055H125.298L123.266 26.8438H121.577L124.419 37ZM142.542 25.125C143.138 25.125 143.606 24.6465 143.606 24.0605C143.606 23.4648 143.138 22.9961 142.542 22.9961C141.956 22.9961 141.478 23.4648 141.478 24.0605C141.478 24.6465 141.956 25.125 142.542 25.125ZM141.692 37H143.392V26.8438H141.692V37ZM149.387 37.1953C149.719 37.1953 150.08 37.1562 150.295 37.127V35.75C150.149 35.7598 149.953 35.7891 149.748 35.7891C148.84 35.7891 148.361 35.4863 148.361 34.4023V28.25H150.295V26.8438H148.361V24.0996H146.604V26.8438H145.119V28.25H146.604V34.4121C146.604 36.3555 147.522 37.1953 149.387 37.1953ZM157.94 25.125C158.535 25.125 159.004 24.6465 159.004 24.0605C159.004 23.4648 158.535 22.9961 157.94 22.9961C157.354 22.9961 156.875 23.4648 156.875 24.0605C156.875 24.6465 157.354 25.125 157.94 25.125ZM157.09 37H158.789V26.8438H157.09V37ZM161.484 37H163.183V31.0234C163.183 29.2949 164.228 28.1523 165.83 28.1523C167.392 28.1523 168.164 29.0605 168.164 30.7109V37H169.863V30.4082C169.863 28.0938 168.574 26.6484 166.347 26.6484C164.804 26.6484 163.769 27.3418 163.222 28.2891H163.183V26.8438H161.484V37ZM176.033 37H177.879L179.304 32.9668H184.978L186.404 37H188.25L183.015 22.9082H181.277L176.033 37ZM182.127 25.0176H182.166L184.451 31.4727H179.841L182.127 25.0176ZM190.251 37H192.009V31.4238H195.378L198.395 37H200.456L197.194 31.1504C198.952 30.5938 200.026 29.0801 200.026 27.127V27.1074C200.026 24.5684 198.249 22.9082 195.534 22.9082H190.251V37ZM192.009 29.8711V24.4707H195.3C197.106 24.4707 198.21 25.4668 198.21 27.1465V27.166C198.21 28.8945 197.184 29.8711 195.378 29.8711H192.009ZM211.05 37.1953C213.853 37.1953 215.747 35.1641 215.747 31.9219V31.9023C215.747 28.6602 213.843 26.6484 211.04 26.6484C208.237 26.6484 206.343 28.6699 206.343 31.9023V31.9219C206.343 35.1543 208.228 37.1953 211.05 37.1953ZM211.06 35.6914C209.263 35.6914 208.081 34.3145 208.081 31.9219V31.9023C208.081 29.5293 209.272 28.1523 211.04 28.1523C212.837 28.1523 214.009 29.5195 214.009 31.9023V31.9219C214.009 34.3047 212.847 35.6914 211.06 35.6914ZM217.846 37H219.545V31.0234C219.545 29.2949 220.59 28.1523 222.192 28.1523C223.754 28.1523 224.526 29.0605 224.526 30.7109V37H226.225V30.4082C226.225 28.0938 224.936 26.6484 222.709 26.6484C221.166 26.6484 220.131 27.3418 219.584 28.2891H219.545V26.8438H217.846V37ZM234.211 25.125C234.807 25.125 235.276 24.6465 235.276 24.0605C235.276 23.4648 234.807 22.9961 234.211 22.9961C233.625 22.9961 233.147 23.4648 233.147 24.0605C233.147 24.6465 233.625 25.125 234.211 25.125ZM233.362 37H235.061V26.8438H233.362V37ZM243.976 37.2344C247.97 37.2344 250.46 34.4316 250.46 29.959V29.9395C250.46 25.4766 247.96 22.6738 243.976 22.6738C239.982 22.6738 237.472 25.4766 237.472 29.9395V29.959C237.472 34.4316 239.972 37.2344 243.976 37.2344ZM243.976 35.6133C241.085 35.6133 239.269 33.4258 239.269 29.959V29.9395C239.269 26.4727 241.095 24.2949 243.976 24.2949C246.847 24.2949 248.664 26.4824 248.664 29.9395V29.959C248.664 33.3965 246.876 35.6133 243.976 35.6133ZM257.637 37.2344C260.86 37.2344 262.842 35.6523 262.842 33.1523V33.1426C262.842 30.9941 261.631 29.8223 258.741 29.1875L257.178 28.8457C255.342 28.4453 254.493 27.7227 254.493 26.5703V26.5605C254.493 25.2031 255.723 24.3047 257.608 24.2949C259.395 24.2949 260.596 25.1445 260.811 26.5801L260.831 26.7168H262.589L262.579 26.5703C262.423 24.2656 260.411 22.6738 257.657 22.6738C254.756 22.6738 252.706 24.2949 252.696 26.6094V26.6191C252.696 28.6797 253.985 29.9199 256.739 30.5254L258.301 30.8672C260.235 31.2969 261.046 31.9902 261.046 33.2305V33.2402C261.046 34.6953 259.766 35.6133 257.735 35.6133C255.694 35.6133 254.327 34.7441 254.122 33.3281L254.102 33.1914H252.344L252.354 33.3281C252.53 35.7402 254.59 37.2344 257.637 37.2344Z" fill="white"/>
</g>
<defs>
<filter id="filter0_b" x="-54.37" y="-54.37" width="467.74" height="168.74" filterUnits="userSpaceOnUse" color-interpolation-filters="sRGB">
<feFlood flood-opacity="0" result="BackgroundImageFix"/>
<feGaussianBlur in="BackgroundImage" stdDeviation="27.185"/>
<feComposite in2="SourceAlpha" operator="in" result="effect1_backgroundBlur"/>
<feBlend mode="normal" in="SourceGraphic" in2="effect1_backgroundBlur" result="shape"/>
</filter>
</defs>
</svg>
